<?xml version="1.0" encoding="utf-8" standalone="no"?>
<!DOCTYPE svg PUBLIC "-//W3C//DTD SVG 1.1//EN"
  "http://www.w3.org/Graphics/SVG/1.1/DTD/svg11.dtd">
<!-- Created with matplotlib (http://matplotlib.org/) -->
<svg height="432pt" version="1.1" viewBox="0 0 432 432" width="432pt" xmlns="http://www.w3.org/2000/svg" xmlns:xlink="http://www.w3.org/1999/xlink">
 <defs>
  <style type="text/css">
*{stroke-linecap:butt;stroke-linejoin:round;stroke-miterlimit:100000;}
  </style>
 </defs>
 <g id="figure_1">
  <g id="patch_1">
   <path d="M 0 432 
L 432 432 
L 432 0 
L 0 0 
z
" style="fill:#ffffff;"/>
  </g>
  <g id="axes_1">
   <g id="PathCollection_1">
    <defs>
     <path d="M 0 2.236068 
C 0.593012 2.236068 1.161816 2.000462 1.581139 1.581139 
C 2.000462 1.161816 2.236068 0.593012 2.236068 0 
C 2.236068 -0.593012 2.000462 -1.161816 1.581139 -1.581139 
C 1.161816 -2.000462 0.593012 -2.236068 0 -2.236068 
C -0.593012 -2.236068 -1.161816 -2.000462 -1.581139 -1.581139 
C -2.000462 -1.161816 -2.236068 -0.593012 -2.236068 0 
C -2.236068 0.593012 -2.000462 1.161816 -1.581139 1.581139 
C -1.161816 2.000462 -0.593012 2.236068 0 2.236068 
z
" id="m2ef83e0484" style="stroke:#0000ff;"/>
    </defs>
    <g clip-path="url(#p8e09928061)">
     <use style="fill:#0000ff;stroke:#0000ff;" x="236.042375445" xlink:href="#m2ef83e0484" y="140.860792912"/>
    </g>
   </g>
   <g id="PathCollection_2">
    <defs>
     <path d="M 0 2.236068 
C 0.593012 2.236068 1.161816 2.000462 1.581139 1.581139 
C 2.000462 1.161816 2.236068 0.593012 2.236068 0 
C 2.236068 -0.593012 2.000462 -1.161816 1.581139 -1.581139 
C 1.161816 -2.000462 0.593012 -2.236068 0 -2.236068 
C -0.593012 -2.236068 -1.161816 -2.000462 -1.581139 -1.581139 
C -2.000462 -1.161816 -2.236068 -0.593012 -2.236068 0 
C -2.236068 0.593012 -2.000462 1.161816 -1.581139 1.581139 
C -1.161816 2.000462 -0.593012 2.236068 0 2.236068 
z
" id="me59eb8449b" style="stroke:#ff0000;"/>
    </defs>
    <g clip-path="url(#p8e09928061)">
     <use style="fill:#ffffff;stroke:#ff0000;" x="227.062155085" xlink:href="#me59eb8449b" y="280.034952133"/>
    </g>
   </g>
   <g id="line2d_1">
    <path clip-path="url(#p8e09928061)" d="M 230.2625 27.689201 
L 233.436137 27.716891 
L 236.608807 27.799955 
L 242.947383 28.132083 
L 249.270503 28.685179 
L 255.570466 29.458571 
L 261.839594 30.451315 
L 268.070251 31.662203 
L 274.254845 33.089758 
L 280.385841 34.732243 
L 286.455769 36.587655 
L 292.457234 38.653734 
L 298.382925 40.927962 
L 304.225622 43.40757 
L 309.978206 46.089536 
L 315.633668 48.970592 
L 321.185119 52.047229 
L 326.625795 55.315698 
L 331.949067 58.772016 
L 337.148449 62.411974 
L 342.217608 66.231135 
L 347.150366 70.224847 
L 351.940714 74.388245 
L 356.582817 78.716256 
L 361.071017 83.203606 
L 365.399848 87.84483 
L 369.564034 92.634271 
L 373.558503 97.566095 
L 377.378388 102.634293 
L 381.019035 107.832691 
L 384.476008 113.154955 
L 387.745096 118.5946 
L 390.822315 124.145 
L 393.703917 129.799391 
L 396.386391 135.550886 
L 398.866469 141.392476 
L 401.141128 147.317044 
L 403.207599 153.317373 
L 405.063362 159.386152 
L 406.706157 165.515987 
L 408.133983 171.699409 
L 409.3451 177.928886 
L 410.338033 184.196827 
L 411.111571 190.495597 
L 411.664772 196.81752 
L 411.996963 203.154895 
L 412.107738 209.5 
L 411.996963 215.845105 
L 411.664772 222.18248 
L 411.111571 228.504403 
L 410.338033 234.803173 
L 409.3451 241.071114 
L 408.133983 247.300591 
L 406.706157 253.484013 
L 405.063362 259.613848 
L 403.207599 265.682627 
L 401.141128 271.682956 
L 398.866469 277.607524 
L 396.386391 283.449114 
L 393.703917 289.200609 
L 390.822315 294.855 
L 387.745096 300.4054 
L 384.476008 305.845045 
L 381.019035 311.167309 
L 377.378388 316.365707 
L 373.558503 321.433905 
L 369.564034 326.365729 
L 365.399848 331.15517 
L 361.071017 335.796394 
L 356.582817 340.283744 
L 351.940714 344.611755 
L 347.150366 348.775153 
L 342.217608 352.768865 
L 337.148449 356.588026 
L 331.949067 360.227984 
L 326.625795 363.684302 
L 321.185119 366.952771 
L 315.633668 370.029408 
L 309.978206 372.910464 
L 304.225622 375.59243 
L 298.382925 378.072038 
L 292.457234 380.346266 
L 286.455769 382.412345 
L 280.385841 384.267757 
L 274.254845 385.910242 
L 268.070251 387.337797 
L 261.839594 388.548685 
L 255.570466 389.541429 
L 249.270503 390.314821 
L 242.947383 390.867917 
L 236.608807 391.200045 
L 230.2625 391.310799 
L 223.916193 391.200045 
L 217.577617 390.867917 
L 211.254497 390.314821 
L 204.954534 389.541429 
L 198.685406 388.548685 
L 192.454749 387.337797 
L 186.270155 385.910242 
L 180.139159 384.267757 
L 174.069231 382.412345 
L 168.067766 380.346266 
L 162.142075 378.072038 
L 156.299378 375.59243 
L 150.546794 372.910464 
L 144.891332 370.029408 
L 139.339881 366.952771 
L 133.899205 363.684302 
L 128.575933 360.227984 
L 123.376551 356.588026 
L 118.307392 352.768865 
L 113.374634 348.775153 
L 108.584286 344.611755 
L 103.942183 340.283744 
L 99.453983 335.796394 
L 95.125152 331.15517 
L 90.960966 326.365729 
L 86.966497 321.433905 
L 83.146612 316.365707 
L 79.505965 311.167309 
L 76.048992 305.845045 
L 72.779904 300.4054 
L 69.702685 294.855 
L 66.821083 289.200609 
L 64.138609 283.449114 
L 61.658531 277.607524 
L 59.383872 271.682956 
L 57.317401 265.682627 
L 55.461638 259.613848 
L 53.818843 253.484013 
L 52.391017 247.300591 
L 51.1799 241.071114 
L 50.186967 234.803173 
L 49.413429 228.504403 
L 48.860228 222.18248 
L 48.528037 215.845105 
L 48.417262 209.5 
L 48.528037 203.154895 
L 48.860228 196.81752 
L 49.413429 190.495597 
L 50.186967 184.196827 
L 51.1799 177.928886 
L 52.391017 171.699409 
L 53.818843 165.515987 
L 55.461638 159.386152 
L 57.317401 153.317373 
L 59.383872 147.317044 
L 61.658531 141.392476 
L 64.138609 135.550886 
L 66.821083 129.799391 
L 69.702685 124.145 
L 72.779904 118.5946 
L 76.048992 113.154955 
L 79.505965 107.832691 
L 83.146612 102.634293 
L 86.966497 97.566095 
L 90.960966 92.634271 
L 95.125152 87.84483 
L 99.453983 83.203606 
L 103.942183 78.716256 
L 108.584286 74.388245 
L 113.374634 70.224847 
L 118.307392 66.231135 
L 123.376551 62.411974 
L 128.575933 58.772016 
L 133.899205 55.315698 
L 139.339881 52.047229 
L 144.891332 48.970592 
L 150.546794 46.089536 
L 156.299378 43.40757 
L 162.142075 40.927962 
L 168.067766 38.653734 
L 174.069231 36.587655 
L 180.139159 34.732243 
L 186.270155 33.089758 
L 192.454749 31.662203 
L 198.685406 30.451315 
L 204.954534 29.458571 
L 211.254497 28.685179 
L 217.577617 28.132083 
L 223.916193 27.799955 
L 230.2625 27.689201 
L 230.2625 27.689201 
" style="fill:none;stroke:#000000;stroke-linecap:square;"/>
   </g>
   <g id="line2d_2">
    <defs>
     <path d="M -3 0 
L 3 0 
M 0 3 
L 0 -3 
" id="m3c0e6d4d07" style="stroke:#000000;stroke-width:0.5;"/>
    </defs>
    <g clip-path="url(#p8e09928061)">
     <use style="stroke:#000000;stroke-width:0.5;" x="230.2625" xlink:href="#m3c0e6d4d07" y="44.2269009161"/>
     <use style="stroke:#000000;stroke-width:0.5;" x="230.2625" xlink:href="#m3c0e6d4d07" y="62.0224292306"/>
     <use style="stroke:#000000;stroke-width:0.5;" x="230.2625" xlink:href="#m3c0e6d4d07" y="80.9403509081"/>
     <use style="stroke:#000000;stroke-width:0.5;" x="230.2625" xlink:href="#m3c0e6d4d07" y="100.836689142"/>
     <use style="stroke:#000000;stroke-width:0.5;" x="230.2625" xlink:href="#m3c0e6d4d07" y="121.560020783"/>
     <use style="stroke:#000000;stroke-width:0.5;" x="230.2625" xlink:href="#m3c0e6d4d07" y="142.952628767"/>
     <use style="stroke:#000000;stroke-width:0.5;" x="230.2625" xlink:href="#m3c0e6d4d07" y="164.851702427"/>
     <use style="stroke:#000000;stroke-width:0.5;" x="230.2625" xlink:href="#m3c0e6d4d07" y="187.090576592"/>
     <use style="stroke:#000000;stroke-width:0.5;" x="230.2625" xlink:href="#m3c0e6d4d07" y="209.5"/>
    </g>
   </g>
   <g id="line2d_3">
    <g clip-path="url(#p8e09928061)">
     <use style="stroke:#000000;stroke-width:0.5;" x="395.566905272" xlink:href="#m3c0e6d4d07" y="209.5"/>
     <use style="stroke:#000000;stroke-width:0.5;" x="377.768006112" xlink:href="#m3c0e6d4d07" y="209.5"/>
     <use style="stroke:#000000;stroke-width:0.5;" x="358.846500984" xlink:href="#m3c0e6d4d07" y="209.5"/>
     <use style="stroke:#000000;stroke-width:0.5;" x="338.946393967" xlink:href="#m3c0e6d4d07" y="209.5"/>
     <use style="stroke:#000000;stroke-width:0.5;" x="318.219136892" xlink:href="#m3c0e6d4d07" y="209.5"/>
     <use style="stroke:#000000;stroke-width:0.5;" x="296.8224767" xlink:href="#m3c0e6d4d07" y="209.5"/>
     <use style="stroke:#000000;stroke-width:0.5;" x="274.919254896" xlink:href="#m3c0e6d4d07" y="209.5"/>
     <use style="stroke:#000000;stroke-width:0.5;" x="252.676168222" xlink:href="#m3c0e6d4d07" y="209.5"/>
    </g>
   </g>
   <g id="line2d_4">
    <g clip-path="url(#p8e09928061)">
     <use style="stroke:#000000;stroke-width:0.5;" x="230.2625" xlink:href="#m3c0e6d4d07" y="374.773099084"/>
     <use style="stroke:#000000;stroke-width:0.5;" x="230.2625" xlink:href="#m3c0e6d4d07" y="356.977570769"/>
     <use style="stroke:#000000;stroke-width:0.5;" x="230.2625" xlink:href="#m3c0e6d4d07" y="338.059649092"/>
     <use style="stroke:#000000;stroke-width:0.5;" x="230.2625" xlink:href="#m3c0e6d4d07" y="318.163310858"/>
     <use style="stroke:#000000;stroke-width:0.5;" x="230.2625" xlink:href="#m3c0e6d4d07" y="297.439979217"/>
     <use style="stroke:#000000;stroke-width:0.5;" x="230.2625" xlink:href="#m3c0e6d4d07" y="276.047371233"/>
     <use style="stroke:#000000;stroke-width:0.5;" x="230.2625" xlink:href="#m3c0e6d4d07" y="254.148297573"/>
     <use style="stroke:#000000;stroke-width:0.5;" x="230.2625" xlink:href="#m3c0e6d4d07" y="231.909423408"/>
    </g>
   </g>
   <g id="line2d_5">
    <g clip-path="url(#p8e09928061)">
     <use style="stroke:#000000;stroke-width:0.5;" x="64.9580947276" xlink:href="#m3c0e6d4d07" y="209.5"/>
     <use style="stroke:#000000;stroke-width:0.5;" x="82.7569938881" xlink:href="#m3c0e6d4d07" y="209.5"/>
     <use style="stroke:#000000;stroke-width:0.5;" x="101.678499016" xlink:href="#m3c0e6d4d07" y="209.5"/>
     <use style="stroke:#000000;stroke-width:0.5;" x="121.578606033" xlink:href="#m3c0e6d4d07" y="209.5"/>
     <use style="stroke:#000000;stroke-width:0.5;" x="142.305863108" xlink:href="#m3c0e6d4d07" y="209.5"/>
     <use style="stroke:#000000;stroke-width:0.5;" x="163.7025233" xlink:href="#m3c0e6d4d07" y="209.5"/>
     <use style="stroke:#000000;stroke-width:0.5;" x="185.605745104" xlink:href="#m3c0e6d4d07" y="209.5"/>
     <use style="stroke:#000000;stroke-width:0.5;" x="207.848831778" xlink:href="#m3c0e6d4d07" y="209.5"/>
    </g>
   </g>
   <g id="line2d_6">
    <path clip-path="url(#p8e09928061)" d="M 230.2625 27.689201 
L 230.2625 29.282702 
L 230.2625 30.889927 
L 230.2625 32.510755 
" style="fill:none;stroke:#000000;stroke-linecap:square;"/>
   </g>
   <g id="line2d_7">
    <path clip-path="url(#p8e09928061)" d="M 261.839594 30.451315 
L 261.562833 32.020608 
L 261.283689 33.603416 
L 261.002182 35.199619 
" style="fill:none;stroke:#000000;stroke-linecap:square;"/>
   </g>
   <g id="line2d_8">
    <path clip-path="url(#p8e09928061)" d="M 292.457234 38.653734 
L 291.912122 40.151135 
L 291.362314 41.661433 
L 290.807853 43.184512 
" style="fill:none;stroke:#000000;stroke-linecap:square;"/>
   </g>
   <g id="line2d_9">
    <path clip-path="url(#p8e09928061)" d="M 321.185119 52.047229 
L 320.388218 53.427242 
L 319.584453 54.81914 
L 318.773885 56.222817 
" style="fill:none;stroke:#000000;stroke-linecap:square;"/>
   </g>
   <g id="line2d_10">
    <path clip-path="url(#p8e09928061)" d="M 347.150366 70.224847 
L 346.125889 71.44554 
L 345.092589 72.676746 
L 344.050544 73.918372 
" style="fill:none;stroke:#000000;stroke-linecap:square;"/>
   </g>
   <g id="line2d_11">
    <path clip-path="url(#p8e09928061)" d="M 369.564034 92.634271 
L 368.34311 93.658554 
L 367.111671 94.691658 
L 365.86981 95.733506 
" style="fill:none;stroke:#000000;stroke-linecap:square;"/>
   </g>
   <g id="line2d_12">
    <path clip-path="url(#p8e09928061)" d="M 387.745096 118.5946 
L 386.364822 119.391351 
L 384.97266 120.194964 
L 383.568717 121.005377 
" style="fill:none;stroke:#000000;stroke-linecap:square;"/>
   </g>
   <g id="line2d_13">
    <path clip-path="url(#p8e09928061)" d="M 401.141128 147.317044 
L 399.643443 147.862054 
L 398.132859 148.411757 
L 396.609492 148.966113 
" style="fill:none;stroke:#000000;stroke-linecap:square;"/>
   </g>
   <g id="line2d_14">
    <path clip-path="url(#p8e09928061)" d="M 409.3451 177.928886 
L 407.775511 178.205595 
L 406.192403 178.484686 
L 404.595897 178.76614 
" style="fill:none;stroke:#000000;stroke-linecap:square;"/>
   </g>
   <g id="line2d_15">
    <path clip-path="url(#p8e09928061)" d="M 412.107738 209.5 
L 410.513935 209.5 
L 408.906405 209.5 
L 407.285271 209.5 
" style="fill:none;stroke:#000000;stroke-linecap:square;"/>
   </g>
   <g id="line2d_16">
    <path clip-path="url(#p8e09928061)" d="M 409.3451 241.071114 
L 407.775511 240.794405 
L 406.192403 240.515314 
L 404.595897 240.23386 
" style="fill:none;stroke:#000000;stroke-linecap:square;"/>
   </g>
   <g id="line2d_17">
    <path clip-path="url(#p8e09928061)" d="M 401.141128 271.682956 
L 399.643443 271.137946 
L 398.132859 270.588243 
L 396.609492 270.033887 
" style="fill:none;stroke:#000000;stroke-linecap:square;"/>
   </g>
   <g id="line2d_18">
    <path clip-path="url(#p8e09928061)" d="M 387.745096 300.4054 
L 386.364822 299.608649 
L 384.97266 298.805036 
L 383.568717 297.994623 
" style="fill:none;stroke:#000000;stroke-linecap:square;"/>
   </g>
   <g id="line2d_19">
    <path clip-path="url(#p8e09928061)" d="M 369.564034 326.365729 
L 368.34311 325.341446 
L 367.111671 324.308342 
L 365.86981 323.266494 
" style="fill:none;stroke:#000000;stroke-linecap:square;"/>
   </g>
   <g id="line2d_20">
    <path clip-path="url(#p8e09928061)" d="M 347.150366 348.775153 
L 346.125889 347.55446 
L 345.092589 346.323254 
L 344.050544 345.081628 
" style="fill:none;stroke:#000000;stroke-linecap:square;"/>
   </g>
   <g id="line2d_21">
    <path clip-path="url(#p8e09928061)" d="M 321.185119 366.952771 
L 320.388218 365.572758 
L 319.584453 364.18086 
L 318.773885 362.777183 
" style="fill:none;stroke:#000000;stroke-linecap:square;"/>
   </g>
   <g id="line2d_22">
    <path clip-path="url(#p8e09928061)" d="M 292.457234 380.346266 
L 291.912122 378.848865 
L 291.362314 377.338567 
L 290.807853 375.815488 
" style="fill:none;stroke:#000000;stroke-linecap:square;"/>
   </g>
   <g id="line2d_23">
    <path clip-path="url(#p8e09928061)" d="M 261.839594 388.548685 
L 261.562833 386.979392 
L 261.283689 385.396584 
L 261.002182 383.800381 
" style="fill:none;stroke:#000000;stroke-linecap:square;"/>
   </g>
   <g id="line2d_24">
    <path clip-path="url(#p8e09928061)" d="M 230.2625 391.310799 
L 230.2625 389.717298 
L 230.2625 388.110073 
L 230.2625 386.489245 
" style="fill:none;stroke:#000000;stroke-linecap:square;"/>
   </g>
   <g id="line2d_25">
    <path clip-path="url(#p8e09928061)" d="M 198.685406 388.548685 
L 198.962167 386.979392 
L 199.241311 385.396584 
L 199.522818 383.800381 
" style="fill:none;stroke:#000000;stroke-linecap:square;"/>
   </g>
   <g id="line2d_26">
    <path clip-path="url(#p8e09928061)" d="M 168.067766 380.346266 
L 168.612878 378.848865 
L 169.162686 377.338567 
L 169.717147 375.815488 
" style="fill:none;stroke:#000000;stroke-linecap:square;"/>
   </g>
   <g id="line2d_27">
    <path clip-path="url(#p8e09928061)" d="M 139.339881 366.952771 
L 140.136782 365.572758 
L 140.940547 364.18086 
L 141.751115 362.777183 
" style="fill:none;stroke:#000000;stroke-linecap:square;"/>
   </g>
   <g id="line2d_28">
    <path clip-path="url(#p8e09928061)" d="M 113.374634 348.775153 
L 114.399111 347.55446 
L 115.432411 346.323254 
L 116.474456 345.081628 
" style="fill:none;stroke:#000000;stroke-linecap:square;"/>
   </g>
   <g id="line2d_29">
    <path clip-path="url(#p8e09928061)" d="M 90.960966 326.365729 
L 92.18189 325.341446 
L 93.413329 324.308342 
L 94.65519 323.266494 
" style="fill:none;stroke:#000000;stroke-linecap:square;"/>
   </g>
   <g id="line2d_30">
    <path clip-path="url(#p8e09928061)" d="M 72.779904 300.4054 
L 74.160178 299.608649 
L 75.55234 298.805036 
L 76.956283 297.994623 
" style="fill:none;stroke:#000000;stroke-linecap:square;"/>
   </g>
   <g id="line2d_31">
    <path clip-path="url(#p8e09928061)" d="M 59.383872 271.682956 
L 60.881557 271.137946 
L 62.392141 270.588243 
L 63.915508 270.033887 
" style="fill:none;stroke:#000000;stroke-linecap:square;"/>
   </g>
   <g id="line2d_32">
    <path clip-path="url(#p8e09928061)" d="M 51.1799 241.071114 
L 52.749489 240.794405 
L 54.332597 240.515314 
L 55.929103 240.23386 
" style="fill:none;stroke:#000000;stroke-linecap:square;"/>
   </g>
   <g id="line2d_33">
    <path clip-path="url(#p8e09928061)" d="M 48.417262 209.5 
L 50.011065 209.5 
L 51.618595 209.5 
L 53.239729 209.5 
" style="fill:none;stroke:#000000;stroke-linecap:square;"/>
   </g>
   <g id="line2d_34">
    <path clip-path="url(#p8e09928061)" d="M 51.1799 177.928886 
L 52.749489 178.205595 
L 54.332597 178.484686 
L 55.929103 178.76614 
" style="fill:none;stroke:#000000;stroke-linecap:square;"/>
   </g>
   <g id="line2d_35">
    <path clip-path="url(#p8e09928061)" d="M 59.383872 147.317044 
L 60.881557 147.862054 
L 62.392141 148.411757 
L 63.915508 148.966113 
" style="fill:none;stroke:#000000;stroke-linecap:square;"/>
   </g>
   <g id="line2d_36">
    <path clip-path="url(#p8e09928061)" d="M 72.779904 118.5946 
L 74.160178 119.391351 
L 75.55234 120.194964 
L 76.956283 121.005377 
" style="fill:none;stroke:#000000;stroke-linecap:square;"/>
   </g>
   <g id="line2d_37">
    <path clip-path="url(#p8e09928061)" d="M 90.960966 92.634271 
L 92.18189 93.658554 
L 93.413329 94.691658 
L 94.65519 95.733506 
" style="fill:none;stroke:#000000;stroke-linecap:square;"/>
   </g>
   <g id="line2d_38">
    <path clip-path="url(#p8e09928061)" d="M 113.374634 70.224847 
L 114.399111 71.44554 
L 115.432411 72.676746 
L 116.474456 73.918372 
" style="fill:none;stroke:#000000;stroke-linecap:square;"/>
   </g>
   <g id="line2d_39">
    <path clip-path="url(#p8e09928061)" d="M 139.339881 52.047229 
L 140.136782 53.427242 
L 140.940547 54.81914 
L 141.751115 56.222817 
" style="fill:none;stroke:#000000;stroke-linecap:square;"/>
   </g>
   <g id="line2d_40">
    <path clip-path="url(#p8e09928061)" d="M 168.067766 38.653734 
L 168.612878 40.151135 
L 169.162686 41.661433 
L 169.717147 43.184512 
" style="fill:none;stroke:#000000;stroke-linecap:square;"/>
   </g>
   <g id="line2d_41">
    <path clip-path="url(#p8e09928061)" d="M 198.685406 30.451315 
L 198.962167 32.020608 
L 199.241311 33.603416 
L 199.522818 35.199619 
" style="fill:none;stroke:#000000;stroke-linecap:square;"/>
   </g>
   <g id="line2d_42">
    <path clip-path="url(#p8e09928061)" d="M 252.590251 142.667864 
L 252.657042 141.699537 
L 252.658154 140.727324 
L 252.593369 139.755072 
L 252.462729 138.786655 
L 252.266543 137.825955 
L 252.005387 136.876853 
L 251.680109 135.943204 
L 251.291822 135.028826 
L 250.841908 134.13748 
L 250.332012 133.272857 
L 249.764042 132.438553 
L 249.140158 131.63806 
L 248.462767 130.874746 
L 247.734517 130.151834 
L 246.958285 129.472395 
L 246.137163 128.839322 
L 245.274453 128.255323 
L 244.373644 127.722904 
L 243.438405 127.244355 
L 242.472562 126.821737 
L 241.480087 126.456874 
L 240.465073 126.151341 
L 239.431723 125.906455 
L 238.384321 125.72327 
L 237.327219 125.602569 
L 236.264812 125.544861 
L 235.20152 125.550379 
L 234.141764 125.619078 
L 233.089945 125.750636 
L 232.050425 125.944457 
L 231.027504 126.199671 
L 230.025402 126.515145 
L 229.048239 126.889486 
L 228.100011 127.321049 
L 227.18458 127.807948 
L 226.305653 128.348066 
L 225.466763 128.939063 
L 224.67126 129.578398 
L 223.922293 130.263331 
L 223.222799 130.990946 
L 222.575492 131.758163 
L 221.982854 132.561751 
L 221.447123 133.39835 
L 220.970291 134.264482 
L 220.554095 135.156569 
L 220.200015 136.070949 
L 219.909267 137.003897 
L 219.682806 137.951633 
L 219.521322 138.910347 
L 219.425241 139.876208 
L 219.394729 140.845386 
L 219.429692 141.814059 
L 219.529781 142.778439 
L 219.694398 143.734774 
L 219.922697 144.679371 
L 220.213597 145.608605 
L 220.565782 146.518932 
L 220.977713 147.406902 
L 221.447636 148.269168 
L 221.973589 149.1025 
L 222.553412 149.903793 
L 223.184757 150.670075 
L 223.865098 151.39852 
L 224.59174 152.086451 
L 225.361832 152.731352 
L 226.172376 153.330873 
L 227.020238 153.882835 
L 227.902163 154.38524 
L 228.814778 154.836272 
L 229.754615 155.234302 
L 230.718112 155.577896 
L 231.701632 155.865815 
L 232.701471 156.09702 
L 233.713873 156.270673 
L 234.735038 156.386142 
L 235.761139 156.443001 
L 236.78833 156.44103 
L 237.812759 156.380217 
L 238.830582 156.260761 
L 239.837975 156.083066 
L 240.831144 155.847746 
L 241.806339 155.55562 
L 242.759865 155.207714 
L 243.688096 154.805254 
L 244.587487 154.349666 
L 245.454584 153.842575 
L 246.286039 153.285796 
L 247.078619 152.681334 
L 247.829221 152.031377 
L 248.534881 151.33829 
L 249.192787 150.604608 
L 249.80029 149.833034 
L 250.354916 149.026424 
L 250.854376 148.187784 
L 251.296574 147.320259 
L 251.679623 146.427122 
L 252.001849 145.511766 
L 252.2618 144.577693 
L 252.458261 143.628499 
L 252.590251 142.667864 
" style="fill:none;stroke:#0000ff;stroke-linecap:square;"/>
   </g>
   <g id="line2d_43">
    <path clip-path="url(#p8e09928061)" d="M 210.974308 278.908862 
L 210.946205 279.845119 
L 210.981829 280.782674 
L 211.081248 281.717811 
L 211.24427 282.646795 
L 211.47045 283.565893 
L 211.75908 284.471387 
L 212.109196 285.35959 
L 212.519574 286.226862 
L 212.988732 287.06963 
L 213.514938 287.884396 
L 214.096209 288.667765 
L 214.730323 289.416449 
L 215.41482 290.127295 
L 216.147017 290.79729 
L 216.924013 291.423585 
L 217.742706 292.003503 
L 218.599798 292.534559 
L 219.491818 293.014466 
L 220.41513 293.441154 
L 221.365952 293.812778 
L 222.340373 294.127727 
L 223.334373 294.384637 
L 224.343835 294.582394 
L 225.364575 294.72014 
L 226.392352 294.797284 
L 227.422893 294.813496 
L 228.451914 294.768717 
L 229.475139 294.663154 
L 230.488321 294.49728 
L 231.487262 294.271833 
L 232.467832 293.987807 
L 233.425992 293.646454 
L 234.357808 293.249268 
L 235.259472 292.797981 
L 236.127318 292.294556 
L 236.95784 291.741171 
L 237.747703 291.140209 
L 238.493762 290.494247 
L 239.193071 289.80604 
L 239.842895 289.078508 
L 240.440724 288.314722 
L 240.984275 287.517887 
L 241.471506 286.691326 
L 241.900618 285.838465 
L 242.270064 284.962818 
L 242.578546 284.06797 
L 242.825027 283.157559 
L 243.008721 282.235263 
L 243.129103 281.304783 
L 243.185902 280.369828 
L 243.179099 279.434098 
L 243.108928 278.501273 
L 242.975866 277.574998 
L 242.780633 276.658864 
L 242.524183 275.756405 
L 242.2077 274.871076 
L 241.832589 274.006246 
L 241.400467 273.165188 
L 240.913158 272.351062 
L 240.372683 271.566914 
L 239.781248 270.815658 
L 239.141238 270.100073 
L 238.455205 269.422794 
L 237.725857 268.786302 
L 236.956051 268.192919 
L 236.148777 267.644801 
L 235.307152 267.143934 
L 234.434404 266.692126 
L 233.533866 266.291003 
L 232.608959 265.942007 
L 231.663187 265.646392 
L 230.700118 265.405216 
L 229.723378 265.219345 
L 228.736639 265.089448 
L 227.743602 265.015994 
L 226.747992 264.999253 
L 225.753542 265.039292 
L 224.763983 265.135981 
L 223.783029 265.288985 
L 222.81437 265.497771 
L 221.861658 265.761607 
L 220.928494 266.079561 
L 220.018415 266.450509 
L 219.134889 266.873132 
L 218.281294 267.34592 
L 217.460914 267.86718 
L 216.676922 268.435034 
L 215.932373 269.047429 
L 215.23019 269.702137 
L 214.573151 270.396768 
L 213.963884 271.12877 
L 213.404851 271.895439 
L 212.898339 272.693925 
L 212.446451 273.521246 
L 212.051094 274.374289 
L 211.713972 275.249827 
L 211.436577 276.144524 
L 211.220179 277.05495 
L 211.065821 277.977591 
L 210.974308 278.908862 
" style="fill:none;stroke:#ff0000;stroke-linecap:square;"/>
   </g>
   <g id="legend_1">
    <g id="patch_2">
     <path d="M 107.797812 55.6275 
L 352.727188 55.6275 
L 352.727188 16.8 
L 107.797812 16.8 
z
" style="fill:#ffffff;stroke:#000000;stroke-linejoin:miter;"/>
    </g>
    <g id="PathCollection_3">
     <path d="M 116.197812 29.804193 
C 116.790825 29.804193 117.359628 29.568587 117.778951 29.149264 
C 118.198274 28.729941 118.43388 28.161137 118.43388 27.568125 
C 118.43388 26.975113 118.198274 26.406309 117.778951 25.986986 
C 117.359628 25.567663 116.790825 25.332057 116.197812 25.332057 
C 115.6048 25.332057 115.035997 25.567663 114.616674 25.986986 
C 114.197351 26.406309 113.961745 26.975113 113.961745 27.568125 
C 113.961745 28.161137 114.197351 28.729941 114.616674 29.149264 
C 115.035997 29.568587 115.6048 29.804193 116.197812 29.804193 
z
" style="fill:#0000ff;stroke:#0000ff;"/>
     <path d="M 124.597812 28.754193 
C 125.190825 28.754193 125.759628 28.518587 126.178951 28.099264 
C 126.598274 27.679941 126.83388 27.111137 126.83388 26.518125 
C 126.83388 25.925113 126.598274 25.356309 126.178951 24.936986 
C 125.759628 24.517663 125.190825 24.282057 124.597812 24.282057 
C 124.0048 24.282057 123.435997 24.517663 123.016674 24.936986 
C 122.597351 25.356309 122.361745 25.925113 122.361745 26.518125 
C 122.361745 27.111137 122.597351 27.679941 123.016674 28.099264 
C 123.435997 28.518587 124.0048 28.754193 124.597812 28.754193 
z
" style="fill:#0000ff;stroke:#0000ff;"/>
     <path d="M 132.997812 30.329193 
C 133.590825 30.329193 134.159628 30.093587 134.578951 29.674264 
C 134.998274 29.254941 135.23388 28.686137 135.23388 28.093125 
C 135.23388 27.500113 134.998274 26.931309 134.578951 26.511986 
C 134.159628 26.092663 133.590825 25.857057 132.997812 25.857057 
C 132.4048 25.857057 131.835997 26.092663 131.416674 26.511986 
C 130.997351 26.931309 130.761745 27.500113 130.761745 28.093125 
C 130.761745 28.686137 130.997351 29.254941 131.416674 29.674264 
C 131.835997 30.093587 132.4048 30.329193 132.997812 30.329193 
z
" style="fill:#0000ff;stroke:#0000ff;"/>
    </g>
    <g id="text_1">
     <!-- Tauxe 2004 Normal Fisher mean -->
     <defs>
      <path d="M 19.1875 8.296875 
L 53.609375 8.296875 
L 53.609375 0 
L 7.328125 0 
L 7.328125 8.296875 
Q 12.9375 14.109375 22.625 23.890625 
Q 32.328125 33.6875 34.8125 36.53125 
Q 39.546875 41.84375 41.421875 45.53125 
Q 43.3125 49.21875 43.3125 52.78125 
Q 43.3125 58.59375 39.234375 62.25 
Q 35.15625 65.921875 28.609375 65.921875 
Q 23.96875 65.921875 18.8125 64.3125 
Q 13.671875 62.703125 7.8125 59.421875 
L 7.8125 69.390625 
Q 13.765625 71.78125 18.9375 73 
Q 24.125 74.21875 28.421875 74.21875 
Q 39.75 74.21875 46.484375 68.546875 
Q 53.21875 62.890625 53.21875 53.421875 
Q 53.21875 48.921875 51.53125 44.890625 
Q 49.859375 40.875 45.40625 35.40625 
Q 44.1875 33.984375 37.640625 27.21875 
Q 31.109375 20.453125 19.1875 8.296875 
" id="BitstreamVeraSans-Roman-32"/>
      <path id="BitstreamVeraSans-Roman-20"/>
      <path d="M 31.78125 66.40625 
Q 24.171875 66.40625 20.328125 58.90625 
Q 16.5 51.421875 16.5 36.375 
Q 16.5 21.390625 20.328125 13.890625 
Q 24.171875 6.390625 31.78125 6.390625 
Q 39.453125 6.390625 43.28125 13.890625 
Q 47.125 21.390625 47.125 36.375 
Q 47.125 51.421875 43.28125 58.90625 
Q 39.453125 66.40625 31.78125 66.40625 
M 31.78125 74.21875 
Q 44.046875 74.21875 50.515625 64.515625 
Q 56.984375 54.828125 56.984375 36.375 
Q 56.984375 17.96875 50.515625 8.265625 
Q 44.046875 -1.421875 31.78125 -1.421875 
Q 19.53125 -1.421875 13.0625 8.265625 
Q 6.59375 17.96875 6.59375 36.375 
Q 6.59375 54.828125 13.0625 64.515625 
Q 19.53125 74.21875 31.78125 74.21875 
" id="BitstreamVeraSans-Roman-30"/>
      <path d="M 37.796875 64.3125 
L 12.890625 25.390625 
L 37.796875 25.390625 
z
M 35.203125 72.90625 
L 47.609375 72.90625 
L 47.609375 25.390625 
L 58.015625 25.390625 
L 58.015625 17.1875 
L 47.609375 17.1875 
L 47.609375 0 
L 37.796875 0 
L 37.796875 17.1875 
L 4.890625 17.1875 
L 4.890625 26.703125 
z
" id="BitstreamVeraSans-Roman-34"/>
      <path d="M 54.890625 33.015625 
L 54.890625 0 
L 45.90625 0 
L 45.90625 32.71875 
Q 45.90625 40.484375 42.875 44.328125 
Q 39.84375 48.1875 33.796875 48.1875 
Q 26.515625 48.1875 22.3125 43.546875 
Q 18.109375 38.921875 18.109375 30.90625 
L 18.109375 0 
L 9.078125 0 
L 9.078125 54.6875 
L 18.109375 54.6875 
L 18.109375 46.1875 
Q 21.34375 51.125 25.703125 53.5625 
Q 30.078125 56 35.796875 56 
Q 45.21875 56 50.046875 50.171875 
Q 54.890625 44.34375 54.890625 33.015625 
" id="BitstreamVeraSans-Roman-6e"/>
      <path d="M 41.109375 46.296875 
Q 39.59375 47.171875 37.8125 47.578125 
Q 36.03125 48 33.890625 48 
Q 26.265625 48 22.1875 43.046875 
Q 18.109375 38.09375 18.109375 28.8125 
L 18.109375 0 
L 9.078125 0 
L 9.078125 54.6875 
L 18.109375 54.6875 
L 18.109375 46.1875 
Q 20.953125 51.171875 25.484375 53.578125 
Q 30.03125 56 36.53125 56 
Q 37.453125 56 38.578125 55.875 
Q 39.703125 55.765625 41.0625 55.515625 
z
" id="BitstreamVeraSans-Roman-72"/>
      <path d="M 30.609375 48.390625 
Q 23.390625 48.390625 19.1875 42.75 
Q 14.984375 37.109375 14.984375 27.296875 
Q 14.984375 17.484375 19.15625 11.84375 
Q 23.34375 6.203125 30.609375 6.203125 
Q 37.796875 6.203125 41.984375 11.859375 
Q 46.1875 17.53125 46.1875 27.296875 
Q 46.1875 37.015625 41.984375 42.703125 
Q 37.796875 48.390625 30.609375 48.390625 
M 30.609375 56 
Q 42.328125 56 49.015625 48.375 
Q 55.71875 40.765625 55.71875 27.296875 
Q 55.71875 13.875 49.015625 6.21875 
Q 42.328125 -1.421875 30.609375 -1.421875 
Q 18.84375 -1.421875 12.171875 6.21875 
Q 5.515625 13.875 5.515625 27.296875 
Q 5.515625 40.765625 12.171875 48.375 
Q 18.84375 56 30.609375 56 
" id="BitstreamVeraSans-Roman-6f"/>
      <path d="M 9.8125 72.90625 
L 23.09375 72.90625 
L 55.421875 11.921875 
L 55.421875 72.90625 
L 64.984375 72.90625 
L 64.984375 0 
L 51.703125 0 
L 19.390625 60.984375 
L 19.390625 0 
L 9.8125 0 
z
" id="BitstreamVeraSans-Roman-4e"/>
      <path d="M 9.421875 75.984375 
L 18.40625 75.984375 
L 18.40625 0 
L 9.421875 0 
z
" id="BitstreamVeraSans-Roman-6c"/>
      <path d="M 9.8125 72.90625 
L 51.703125 72.90625 
L 51.703125 64.59375 
L 19.671875 64.59375 
L 19.671875 43.109375 
L 48.578125 43.109375 
L 48.578125 34.8125 
L 19.671875 34.8125 
L 19.671875 0 
L 9.8125 0 
z
" id="BitstreamVeraSans-Roman-46"/>
      <path d="M -0.296875 72.90625 
L 61.375 72.90625 
L 61.375 64.59375 
L 35.5 64.59375 
L 35.5 0 
L 25.59375 0 
L 25.59375 64.59375 
L -0.296875 64.59375 
z
" id="BitstreamVeraSans-Roman-54"/>
      <path d="M 54.890625 33.015625 
L 54.890625 0 
L 45.90625 0 
L 45.90625 32.71875 
Q 45.90625 40.484375 42.875 44.328125 
Q 39.84375 48.1875 33.796875 48.1875 
Q 26.515625 48.1875 22.3125 43.546875 
Q 18.109375 38.921875 18.109375 30.90625 
L 18.109375 0 
L 9.078125 0 
L 9.078125 75.984375 
L 18.109375 75.984375 
L 18.109375 46.1875 
Q 21.34375 51.125 25.703125 53.5625 
Q 30.078125 56 35.796875 56 
Q 45.21875 56 50.046875 50.171875 
Q 54.890625 44.34375 54.890625 33.015625 
" id="BitstreamVeraSans-Roman-68"/>
      <path d="M 54.890625 54.6875 
L 35.109375 28.078125 
L 55.90625 0 
L 45.3125 0 
L 29.390625 21.484375 
L 13.484375 0 
L 2.875 0 
L 24.125 28.609375 
L 4.6875 54.6875 
L 15.28125 54.6875 
L 29.78125 35.203125 
L 44.28125 54.6875 
z
" id="BitstreamVeraSans-Roman-78"/>
      <path d="M 52 44.1875 
Q 55.375 50.25 60.0625 53.125 
Q 64.75 56 71.09375 56 
Q 79.640625 56 84.28125 50.015625 
Q 88.921875 44.046875 88.921875 33.015625 
L 88.921875 0 
L 79.890625 0 
L 79.890625 32.71875 
Q 79.890625 40.578125 77.09375 44.375 
Q 74.3125 48.1875 68.609375 48.1875 
Q 61.625 48.1875 57.5625 43.546875 
Q 53.515625 38.921875 53.515625 30.90625 
L 53.515625 0 
L 44.484375 0 
L 44.484375 32.71875 
Q 44.484375 40.625 41.703125 44.40625 
Q 38.921875 48.1875 33.109375 48.1875 
Q 26.21875 48.1875 22.15625 43.53125 
Q 18.109375 38.875 18.109375 30.90625 
L 18.109375 0 
L 9.078125 0 
L 9.078125 54.6875 
L 18.109375 54.6875 
L 18.109375 46.1875 
Q 21.1875 51.21875 25.484375 53.609375 
Q 29.78125 56 35.6875 56 
Q 41.65625 56 45.828125 52.96875 
Q 50 49.953125 52 44.1875 
" id="BitstreamVeraSans-Roman-6d"/>
      <path d="M 56.203125 29.59375 
L 56.203125 25.203125 
L 14.890625 25.203125 
Q 15.484375 15.921875 20.484375 11.0625 
Q 25.484375 6.203125 34.421875 6.203125 
Q 39.59375 6.203125 44.453125 7.46875 
Q 49.3125 8.734375 54.109375 11.28125 
L 54.109375 2.78125 
Q 49.265625 0.734375 44.1875 -0.34375 
Q 39.109375 -1.421875 33.890625 -1.421875 
Q 20.796875 -1.421875 13.15625 6.1875 
Q 5.515625 13.8125 5.515625 26.8125 
Q 5.515625 40.234375 12.765625 48.109375 
Q 20.015625 56 32.328125 56 
Q 43.359375 56 49.78125 48.890625 
Q 56.203125 41.796875 56.203125 29.59375 
M 47.21875 32.234375 
Q 47.125 39.59375 43.09375 43.984375 
Q 39.0625 48.390625 32.421875 48.390625 
Q 24.90625 48.390625 20.390625 44.140625 
Q 15.875 39.890625 15.1875 32.171875 
z
" id="BitstreamVeraSans-Roman-65"/>
      <path d="M 9.421875 54.6875 
L 18.40625 54.6875 
L 18.40625 0 
L 9.421875 0 
z
M 9.421875 75.984375 
L 18.40625 75.984375 
L 18.40625 64.59375 
L 9.421875 64.59375 
z
" id="BitstreamVeraSans-Roman-69"/>
      <path d="M 8.5 21.578125 
L 8.5 54.6875 
L 17.484375 54.6875 
L 17.484375 21.921875 
Q 17.484375 14.15625 20.5 10.265625 
Q 23.53125 6.390625 29.59375 6.390625 
Q 36.859375 6.390625 41.078125 11.03125 
Q 45.3125 15.671875 45.3125 23.6875 
L 45.3125 54.6875 
L 54.296875 54.6875 
L 54.296875 0 
L 45.3125 0 
L 45.3125 8.40625 
Q 42.046875 3.421875 37.71875 1 
Q 33.40625 -1.421875 27.6875 -1.421875 
Q 18.265625 -1.421875 13.375 4.4375 
Q 8.5 10.296875 8.5 21.578125 
" id="BitstreamVeraSans-Roman-75"/>
      <path d="M 34.28125 27.484375 
Q 23.390625 27.484375 19.1875 25 
Q 14.984375 22.515625 14.984375 16.5 
Q 14.984375 11.71875 18.140625 8.90625 
Q 21.296875 6.109375 26.703125 6.109375 
Q 34.1875 6.109375 38.703125 11.40625 
Q 43.21875 16.703125 43.21875 25.484375 
L 43.21875 27.484375 
z
M 52.203125 31.203125 
L 52.203125 0 
L 43.21875 0 
L 43.21875 8.296875 
Q 40.140625 3.328125 35.546875 0.953125 
Q 30.953125 -1.421875 24.3125 -1.421875 
Q 15.921875 -1.421875 10.953125 3.296875 
Q 6 8.015625 6 15.921875 
Q 6 25.140625 12.171875 29.828125 
Q 18.359375 34.515625 30.609375 34.515625 
L 43.21875 34.515625 
L 43.21875 35.40625 
Q 43.21875 41.609375 39.140625 45 
Q 35.0625 48.390625 27.6875 48.390625 
Q 23 48.390625 18.546875 47.265625 
Q 14.109375 46.140625 10.015625 43.890625 
L 10.015625 52.203125 
Q 14.9375 54.109375 19.578125 55.046875 
Q 24.21875 56 28.609375 56 
Q 40.484375 56 46.34375 49.84375 
Q 52.203125 43.703125 52.203125 31.203125 
" id="BitstreamVeraSans-Roman-61"/>
      <path d="M 44.28125 53.078125 
L 44.28125 44.578125 
Q 40.484375 46.53125 36.375 47.5 
Q 32.28125 48.484375 27.875 48.484375 
Q 21.1875 48.484375 17.84375 46.4375 
Q 14.5 44.390625 14.5 40.28125 
Q 14.5 37.15625 16.890625 35.375 
Q 19.28125 33.59375 26.515625 31.984375 
L 29.59375 31.296875 
Q 39.15625 29.25 43.1875 25.515625 
Q 47.21875 21.78125 47.21875 15.09375 
Q 47.21875 7.46875 41.1875 3.015625 
Q 35.15625 -1.421875 24.609375 -1.421875 
Q 20.21875 -1.421875 15.453125 -0.5625 
Q 10.6875 0.296875 5.421875 2 
L 5.421875 11.28125 
Q 10.40625 8.6875 15.234375 7.390625 
Q 20.0625 6.109375 24.8125 6.109375 
Q 31.15625 6.109375 34.5625 8.28125 
Q 37.984375 10.453125 37.984375 14.40625 
Q 37.984375 18.0625 35.515625 20.015625 
Q 33.0625 21.96875 24.703125 23.78125 
L 21.578125 24.515625 
Q 13.234375 26.265625 9.515625 29.90625 
Q 5.8125 33.546875 5.8125 39.890625 
Q 5.8125 47.609375 11.28125 51.796875 
Q 16.75 56 26.8125 56 
Q 31.78125 56 36.171875 55.265625 
Q 40.578125 54.546875 44.28125 53.078125 
" id="BitstreamVeraSans-Roman-73"/>
     </defs>
     <g transform="translate(146.1978125 30.718125)scale(0.12 -0.12)">
      <use xlink:href="#BitstreamVeraSans-Roman-54"/>
      <use x="60.833984375" xlink:href="#BitstreamVeraSans-Roman-61"/>
      <use x="122.11328125" xlink:href="#BitstreamVeraSans-Roman-75"/>
      <use x="185.4921875" xlink:href="#BitstreamVeraSans-Roman-78"/>
      <use x="244.625" xlink:href="#BitstreamVeraSans-Roman-65"/>
      <use x="306.1484375" xlink:href="#BitstreamVeraSans-Roman-20"/>
      <use x="337.935546875" xlink:href="#BitstreamVeraSans-Roman-32"/>
      <use x="401.55859375" xlink:href="#BitstreamVeraSans-Roman-30"/>
      <use x="465.181640625" xlink:href="#BitstreamVeraSans-Roman-30"/>
      <use x="528.8046875" xlink:href="#BitstreamVeraSans-Roman-34"/>
      <use x="592.427734375" xlink:href="#BitstreamVeraSans-Roman-20"/>
      <use x="624.21484375" xlink:href="#BitstreamVeraSans-Roman-4e"/>
      <use x="699.01953125" xlink:href="#BitstreamVeraSans-Roman-6f"/>
      <use x="760.201171875" xlink:href="#BitstreamVeraSans-Roman-72"/>
      <use x="801.298828125" xlink:href="#BitstreamVeraSans-Roman-6d"/>
      <use x="898.7109375" xlink:href="#BitstreamVeraSans-Roman-61"/>
      <use x="959.990234375" xlink:href="#BitstreamVeraSans-Roman-6c"/>
      <use x="987.7734375" xlink:href="#BitstreamVeraSans-Roman-20"/>
      <use x="1019.56054688" xlink:href="#BitstreamVeraSans-Roman-46"/>
      <use x="1076.97070312" xlink:href="#BitstreamVeraSans-Roman-69"/>
      <use x="1104.75390625" xlink:href="#BitstreamVeraSans-Roman-73"/>
      <use x="1156.85351562" xlink:href="#BitstreamVeraSans-Roman-68"/>
      <use x="1220.23242188" xlink:href="#BitstreamVeraSans-Roman-65"/>
      <use x="1281.75585938" xlink:href="#BitstreamVeraSans-Roman-72"/>
      <use x="1322.86914062" xlink:href="#BitstreamVeraSans-Roman-20"/>
      <use x="1354.65625" xlink:href="#BitstreamVeraSans-Roman-6d"/>
      <use x="1452.06835938" xlink:href="#BitstreamVeraSans-Roman-65"/>
      <use x="1513.59179688" xlink:href="#BitstreamVeraSans-Roman-61"/>
      <use x="1574.87109375" xlink:href="#BitstreamVeraSans-Roman-6e"/>
     </g>
    </g>
    <g id="PathCollection_4">
     <path d="M 116.197812 47.417943 
C 116.790825 47.417943 117.359628 47.182337 117.778951 46.763014 
C 118.198274 46.343691 118.43388 45.774887 118.43388 45.181875 
C 118.43388 44.588863 118.198274 44.020059 117.778951 43.600736 
C 117.359628 43.181413 116.790825 42.945807 116.197812 42.945807 
C 115.6048 42.945807 115.035997 43.181413 114.616674 43.600736 
C 114.197351 44.020059 113.961745 44.588863 113.961745 45.181875 
C 113.961745 45.774887 114.197351 46.343691 114.616674 46.763014 
C 115.035997 47.182337 115.6048 47.417943 116.197812 47.417943 
z
" style="fill:#ffffff;stroke:#ff0000;"/>
     <path d="M 124.597812 46.367943 
C 125.190825 46.367943 125.759628 46.132337 126.178951 45.713014 
C 126.598274 45.293691 126.83388 44.724887 126.83388 44.131875 
C 126.83388 43.538863 126.598274 42.970059 126.178951 42.550736 
C 125.759628 42.131413 125.190825 41.895807 124.597812 41.895807 
C 124.0048 41.895807 123.435997 42.131413 123.016674 42.550736 
C 122.597351 42.970059 122.361745 43.538863 122.361745 44.131875 
C 122.361745 44.724887 122.597351 45.293691 123.016674 45.713014 
C 123.435997 46.132337 124.0048 46.367943 124.597812 46.367943 
z
" style="fill:#ffffff;stroke:#ff0000;"/>
     <path d="M 132.997812 47.942943 
C 133.590825 47.942943 134.159628 47.707337 134.578951 47.288014 
C 134.998274 46.868691 135.23388 46.299887 135.23388 45.706875 
C 135.23388 45.113863 134.998274 44.545059 134.578951 44.125736 
C 134.159628 43.706413 133.590825 43.470807 132.997812 43.470807 
C 132.4048 43.470807 131.835997 43.706413 131.416674 44.125736 
C 130.997351 44.545059 130.761745 45.113863 130.761745 45.706875 
C 130.761745 46.299887 130.997351 46.868691 131.416674 47.288014 
C 131.835997 47.707337 132.4048 47.942943 132.997812 47.942943 
z
" style="fill:#ffffff;stroke:#ff0000;"/>
    </g>
    <g id="text_2">
     <!-- Tauxe 2004 Reverse Fisher mean -->
     <defs>
      <path d="M 2.984375 54.6875 
L 12.5 54.6875 
L 29.59375 8.796875 
L 46.6875 54.6875 
L 56.203125 54.6875 
L 35.6875 0 
L 23.484375 0 
z
" id="BitstreamVeraSans-Roman-76"/>
      <path d="M 44.390625 34.1875 
Q 47.5625 33.109375 50.5625 29.59375 
Q 53.5625 26.078125 56.59375 19.921875 
L 66.609375 0 
L 56 0 
L 46.6875 18.703125 
Q 43.0625 26.03125 39.671875 28.421875 
Q 36.28125 30.8125 30.421875 30.8125 
L 19.671875 30.8125 
L 19.671875 0 
L 9.8125 0 
L 9.8125 72.90625 
L 32.078125 72.90625 
Q 44.578125 72.90625 50.734375 67.671875 
Q 56.890625 62.453125 56.890625 51.90625 
Q 56.890625 45.015625 53.6875 40.46875 
Q 50.484375 35.9375 44.390625 34.1875 
M 19.671875 64.796875 
L 19.671875 38.921875 
L 32.078125 38.921875 
Q 39.203125 38.921875 42.84375 42.21875 
Q 46.484375 45.515625 46.484375 51.90625 
Q 46.484375 58.296875 42.84375 61.546875 
Q 39.203125 64.796875 32.078125 64.796875 
z
" id="BitstreamVeraSans-Roman-52"/>
     </defs>
     <g transform="translate(146.1978125 48.331875)scale(0.12 -0.12)">
      <use xlink:href="#BitstreamVeraSans-Roman-54"/>
      <use x="60.833984375" xlink:href="#BitstreamVeraSans-Roman-61"/>
      <use x="122.11328125" xlink:href="#BitstreamVeraSans-Roman-75"/>
      <use x="185.4921875" xlink:href="#BitstreamVeraSans-Roman-78"/>
      <use x="244.625" xlink:href="#BitstreamVeraSans-Roman-65"/>
      <use x="306.1484375" xlink:href="#BitstreamVeraSans-Roman-20"/>
      <use x="337.935546875" xlink:href="#BitstreamVeraSans-Roman-32"/>
      <use x="401.55859375" xlink:href="#BitstreamVeraSans-Roman-30"/>
      <use x="465.181640625" xlink:href="#BitstreamVeraSans-Roman-30"/>
      <use x="528.8046875" xlink:href="#BitstreamVeraSans-Roman-34"/>
      <use x="592.427734375" xlink:href="#BitstreamVeraSans-Roman-20"/>
      <use x="624.21484375" xlink:href="#BitstreamVeraSans-Roman-52"/>
      <use x="693.634765625" xlink:href="#BitstreamVeraSans-Roman-65"/>
      <use x="755.158203125" xlink:href="#BitstreamVeraSans-Roman-76"/>
      <use x="814.337890625" xlink:href="#BitstreamVeraSans-Roman-65"/>
      <use x="875.861328125" xlink:href="#BitstreamVeraSans-Roman-72"/>
      <use x="916.974609375" xlink:href="#BitstreamVeraSans-Roman-73"/>
      <use x="969.07421875" xlink:href="#BitstreamVeraSans-Roman-65"/>
      <use x="1030.59765625" xlink:href="#BitstreamVeraSans-Roman-20"/>
      <use x="1062.38476562" xlink:href="#BitstreamVeraSans-Roman-46"/>
      <use x="1119.79492188" xlink:href="#BitstreamVeraSans-Roman-69"/>
      <use x="1147.578125" xlink:href="#BitstreamVeraSans-Roman-73"/>
      <use x="1199.67773438" xlink:href="#BitstreamVeraSans-Roman-68"/>
      <use x="1263.05664062" xlink:href="#BitstreamVeraSans-Roman-65"/>
      <use x="1324.58007812" xlink:href="#BitstreamVeraSans-Roman-72"/>
      <use x="1365.69335938" xlink:href="#BitstreamVeraSans-Roman-20"/>
      <use x="1397.48046875" xlink:href="#BitstreamVeraSans-Roman-6d"/>
      <use x="1494.89257812" xlink:href="#BitstreamVeraSans-Roman-65"/>
      <use x="1556.41601562" xlink:href="#BitstreamVeraSans-Roman-61"/>
      <use x="1617.6953125" xlink:href="#BitstreamVeraSans-Roman-6e"/>
     </g>
    </g>
   </g>
  </g>
 </g>
 <defs>
  <clipPath id="p8e09928061">
   <rect height="397.4" width="381.875" x="39.325" y="10.8"/>
  </clipPath>
 </defs>
</svg>
